<svg width="465" height="355" viewBox="0 0 465 355" fill="none" xmlns="http://www.w3.org/2000/svg">
<path d="M457.016 165.83V228.832L402.565 197.331L457.016 165.83Z" fill="white" fill-opacity="0.25"/>
<path d="M430.466 367.886L375.789 399.386V336.385L430.466 367.886Z" fill="white" fill-opacity="0.25"/>
<path d="M464.44 280.583V343.585L409.989 312.084L464.44 280.583Z" fill="white" fill-opacity="0.25"/>
<path d="M348.564 409.737L275.887 367.886L348.564 325.809V409.737Z" fill="white" fill-opacity="0.25"/>
<path d="M348.564 315.459L275.887 357.31V273.383L348.564 315.459Z" fill="white" fill-opacity="0.25"/>
<path d="M266.884 367.885L175.981 315.459L266.884 263.033V367.885Z" fill="white" fill-opacity="0.25"/>
<path d="M430.466 263.033L375.789 294.309V231.532L430.466 263.033Z" fill="white" fill-opacity="0.25"/>
<path d="M348.564 220.957V304.884L275.887 263.033L348.564 220.957Z" fill="white" fill-opacity="0.25"/>
<path d="M175.981 315.459L266.884 367.886L175.981 420.312V315.459Z" fill="white" fill-opacity="0.25"/>
<path d="M440.14 135.004L385.688 166.505V103.728L440.14 135.004Z" fill="white" fill-opacity="0.25"/>
<path d="M350.812 43.2019L296.361 74.9278V11.926L350.812 43.2019Z" fill="white" fill-opacity="0.25"/>
<path d="M348.564 210.607L275.887 252.458V168.53L348.564 210.607Z" fill="white" fill-opacity="0.25"/>
<path d="M248.66 115.428L194.208 83.9274L248.66 52.4266V115.428Z" fill="white" fill-opacity="0.25"/>
<path d="M257.66 156.604V240.532L184.983 198.681L257.66 156.604Z" fill="white" fill-opacity="0.25"/>
<path d="M175.983 210.606V315.459L85.0806 263.032L175.983 210.606Z" fill="white" fill-opacity="0.25"/>
<path d="M166.983 188.105L94.3062 146.254L166.983 104.178V188.105Z" fill="white" fill-opacity="0.25"/>
<path d="M157.759 63.0017L103.308 31.5009L157.759 0V63.0017Z" fill="white" fill-opacity="0.25"/>
<path d="M76.0794 252.458L3.40234 210.382L76.0794 168.53V252.458Z" fill="white" fill-opacity="0.25"/>
<path d="M46.8294 47.9264V110.928L-7.62207 79.4273L46.8294 47.9264Z" fill="white" fill-opacity="0.25"/>
<path d="M339.563 179.781L284.887 148.28L339.563 116.779V179.781Z" fill="white" fill-opacity="0.25"/>
<path d="M248.66 31.5009L194.208 63.0017V0L248.66 31.5009Z" fill="white" fill-opacity="0.25"/>
<path d="M257.66 146.254L184.983 188.105V104.178L257.66 146.254Z" fill="white" fill-opacity="0.25"/>
<path d="M266.884 263.032L175.981 315.459V210.606L266.884 263.032Z" fill="white" fill-opacity="0.25"/>
<path d="M157.759 101.703L103.308 133.204V70.2019L157.759 101.703Z" fill="white" fill-opacity="0.25"/>
<path d="M166.758 198.681L94.3062 240.532V156.604L166.758 198.681Z" fill="white" fill-opacity="0.25"/>
<path d="M66.8539 148.28L12.4023 179.556V116.779L66.8539 148.28Z" fill="white" fill-opacity="0.25"/>
<path d="M175.983 315.459V420.312L85.0806 367.886L175.983 315.459Z" fill="white" fill-opacity="0.25"/>
<path d="M76.0794 367.886L3.40234 409.737V325.809L76.0794 367.886Z" fill="white" fill-opacity="0.25"/>
<path d="M76.0794 263.033L3.40234 304.884V220.957L76.0794 263.033Z" fill="white" fill-opacity="0.25"/>
<path d="M175.983 315.459L85.0806 367.885V263.033L175.983 315.459Z" fill="white" fill-opacity="0.25"/>
<path d="M76.0794 273.383V357.31L3.40234 315.459L76.0794 273.383Z" fill="white" fill-opacity="0.25"/>
</svg>
